#!OML:ASF X:\für Bonn\!DataBase\2005_08_12_Daniel\c3d\Daniel.ASF
:FULLY-SPECIFIED
:DEGREES
174
root 2.31616 17.6006 18.4537 -4.05567 -350.211 361.77
lowerback 5.08111 1.62742 0.196343
upperback -0.785788 2.00173 -5.64665
thorax -3.45915 0.944201 -6.15703
lowerneck 0.53991 -2.92399 -0.533618
upperneck 9.32593 -4.03677 1.75486
head 2.92543 -1.96501 0.558035
rclavicle -2.47487e-014 1.59028e-014
rhumerus 35.8668 0.945161 -62.1445
rradius 59.2598
rwrist 9.68686
rhand -10.4385 13.7939
rfingers 7.12502
rthumb 15.5613 -15.6001
lclavicle -2.47487e-014 1.59028e-014
lhumerus -58.8203 55.0983 32.2519
lradius 14.0288
lwrist -62.2751
lhand -11.2799 -6.10814
lfingers 7.12502
lthumb 14.7508 23.347
rfemur 5.68899 20.1864 19.2716
rtibia 19.1937
rfoot -28.1749 -25.6313
rtoes -10.7348
lfemur -4.03196 -17.3822 -21.9044
ltibia 29.1893
lfoot -20.1571 2.21038
ltoes -11.3043
175
root 2.31726 17.5996 18.4543 -4.04443 -350.152 361.785
lowerback 5.06421 1.54913 0.065618
upperback -0.74719 1.89256 -5.58213
thorax -3.4273 0.893679 -6.00318
lowerneck 0.453539 -2.88223 -0.574219
upperneck 9.26668 -3.97358 1.68415
head 2.9194 -1.93721 0.542893
rclavicle 1.26228e-014 -2.38542e-014
rhumerus 34.0617 0.69953 -62.6808
rradius 62.0758
rwrist 8.52798
rhand -10.7986 13.6267
rfingers 7.12502
rthumb 15.2145 -15.7938
lclavicle 1.26228e-014 -2.38542e-014
lhumerus -58.3371 54.9118 32.9381
lradius 14.1629
lwrist -61.7757
lhand -11.3105 -5.99492
lfingers 7.12502
lthumb 14.7214 23.4624
rfemur 5.69043 20.1751 19.25
rtibia 19.2277
rfoot -28.2943 -25.542
rtoes -10.4762
lfemur -4.07172 -17.3615 -21.8961
ltibia 29.2049
lfoot -20.1603 2.08258
ltoes -11.1245
176
root 2.3187 17.5989 18.4544 -4.02101 -350.089 361.814
lowerback 5.04317 1.46751 -0.0825374
upperback -0.707985 1.77812 -5.51657
thorax -3.39285 0.840832 -5.83791
lowerneck 0.359547 -2.82792 -0.657551
upperneck 9.21395 -3.8946 1.63872
head 2.91853 -1.90209 0.543467
rclavicle 6.4605e-014 -1.74931e-014
rhumerus 32.2257 0.503689 -63.1642
rradius 64.9498
rwrist 7.24536
rhand -11.0229 13.4136
rfingers 7.12502
rthumb 14.9985 -16.0232
lclavicle 6.4605e-014 -1.74931e-014
lhumerus -57.858 54.7657 33.6039
lradius 14.2574
lwrist -61.2744
lhand -11.4376 -5.85843
lfingers 7.12502
lthumb 14.5989 23.6078
rfemur 5.65192 20.0804 19.1735
rtibia 19.2861
rfoot -28.4276 -25.3494
rtoes -10.0919
lfemur -4.11606 -17.3723 -21.9139
ltibia 29.2073
lfoot -20.1269 1.98771
ltoes -10.9895
177
root 2.32107 17.5984 18.4543 -4.01302 -350.012 361.842
lowerback 5.052 1.38645 -0.218076
upperback -0.679748 1.66386 -5.45076
thorax -3.38545 0.787189 -5.68137
lowerneck 0.316017 -2.77982 -0.764018
upperneck 9.1519 -3.82409 1.60587
head 2.90618 -1.87183 0.552638
rclavicle -2.71341e-014 -3.97569e-014
rhumerus 30.3635 0.355388 -63.524
rradius 67.8546
rwrist 5.77071
rhand -11.0721 13.1291
rfingers 7.12502
rthumb 14.951 -16.3112
lclavicle -2.71341e-014 -3.97569e-014
lhumerus -57.1859 54.463 34.5158
lradius 14.3366
lwrist -60.5801
lhand -11.6151 -5.67358
lfingers 7.12502
lthumb 14.4279 23.8049
rfemur 5.62251 19.9334 19.0854
rtibia 19.3478
rfoot -28.5476 -25.1156
rtoes -9.67914
lfemur -4.13888 -17.3924 -21.9411
ltibia 29.2092
lfoot -20.1082 1.89198
ltoes -10.8611
178
root 2.32384 17.5982 18.453 -3.97734 -349.928 361.885
lowerback 5.03098 1.29779 -0.352135
upperback -0.63715 1.54104 -5.39473
thorax -3.34601 0.729786 -5.53402
lowerneck 0.20115 -2.72046 -0.901178
upperneck 9.10744 -3.74075 1.61047
head 2.91444 -1.83456 0.578379
rclavicle -1.20265e-014 2.38542e-014
rhumerus 28.5462 0.226977 -63.8816
rradius 70.7486
rwrist 4.25299
rhand -11.0011 12.7829
rfingers 7.12502
rthumb 15.0195 -16.6524
lclavicle -1.20265e-014 2.38542e-014
lhumerus -56.5487 54.2648 35.3402
lradius 14.389
lwrist -59.8961
lhand -11.7517 -5.48755
lfingers 7.12502
lthumb 14.2963 24.0003
rfemur 5.52585 19.6892 18.9439
rtibia 19.437
rfoot -28.5845 -24.833
rtoes -9.30656
lfemur -4.19459 -17.4217 -21.9777
ltibia 29.2009
lfoot -20.0721 1.81327
ltoes -10.7963
179
root 2.32847 17.5987 18.4509 -3.95528 -349.85 361.914
lowerback 5.03798 1.20968 -0.448218
upperback -0.602115 1.42004 -5.33965
thorax -3.32833 0.672102 -5.41091
lowerneck 0.116865 -2.66431 -0.938926
upperneck 9.04256 -3.65574 1.51355
head 2.90511 -1.79654 0.555099
rclavicle 2.85256e-014 -1.27222e-014
rhumerus 26.6693 0.121931 -64.2194
rradius 73.7166
rwrist 2.79187
rhand -10.7918 12.3103
rfingers 7.12502
rthumb 15.221 -17.1098
lclavicle 2.85256e-014 -1.27222e-014
lhumerus -55.6421 53.8536 36.5151
lradius 14.4523
lwrist -58.8858
lhand -11.9268 -5.27684
lfingers 7.12502
lthumb 14.1276 24.2229
rfemur 5.39917 19.279 18.7636
rtibia 19.5457
rfoot -28.4897 -24.429
rtoes -9.20688
lfemur -4.23222 -17.496 -22.0162
ltibia 29.1896
lfoot -20.027 1.75632
ltoes -10.5492
180
root 2.33428 17.5988 18.4478 -3.93364 -349.749 361.969
lowerback 5.05633 1.11008 -0.564182
upperback -0.561002 1.28248 -5.2804
thorax -3.31207 0.606549 -5.27108
lowerneck -0.0282998 -2.59836 -0.997256
upperneck 9.02713 -3.55736 1.4169
head 2.92422 -1.75205 0.534794
rclavicle 2.51463e-014 -3.18055e-014
rhumerus 24.774 0.0264442 -64.6382
rradius 76.7411
rwrist 1.47819
rhand -10.4382 11.8012
rfingers 7.12502
rthumb 15.5616 -17.5927
lclavicle 2.51463e-014 -3.18055e-014
lhumerus -54.7779 53.4705 37.6486
lradius 14.4925
lwrist -57.9138
lhand -12.0953 -5.08719
lfingers 7.12502
lthumb 13.9652 24.4238
rfemur 5.24609 18.7734 18.5162
rtibia 19.6796
rfoot -28.3703 -23.9674
rtoes -9.06997
lfemur -4.26253 -17.5991 -22.0988
ltibia 29.1742
lfoot -19.9849 1.74336
ltoes -10.5377
